# xmcd
#
# Track frame offsets:
# 150
# 11852
# 25010
# 38395
# 51060
# 67190
# 78342
# 91775
# 104035
# 113168
#
# Disc length: 1692 seconds
#
#
# Revision: 0
# Processed by: cddbd v1.5.1PL0 Copyright (c) Steve Scherf et al.
# Submitted via: FreeRIP 2.942 
#
DISCID=76069a0a
DTITLE=Various Artist - Lo Mejor Del Soul
DYEAR=1996
DGENRE=Soul
TTITLE0=The Platters
TTITLE1=Percy Sledge
TTITLE2=Ben E. King and The Drifters
TTITLE3=Bobby Vinton
TTITLE4=Nina Simone
TTITLE5=Paul and Paula
TTITLE6=Joe Tex
TTITLE7=Jerry Butler
TTITLE8=Gladys Knight and The Pips
TTITLE9=Aaron Neville
EXTD=
EXTT0=Only You
EXTT1=When A Man Loves A Woman
EXTT2=Satnd By Me
EXTT3=Blue Velvet
EXTT4=My Baby Just Cares For mE
EXTT5=Hey Paula
EXTT6=I've Got To do  a Little Bit Better
EXTT7=He will Break Your Heart
EXTT8=Every Beat Of My Heart
EXTT9=
PLAYORDER=
